<svg height="512pt" viewBox="-29 0 512 512" width="512pt" xmlns="http://www.w3.org/2000/svg"><path d="m240 119h-120v-40h120zm-120 40h-40v40h40zm40 40h40v-40h-40zm-40 40h-40v40h40zm40 40h40v-40h-40zm-40 40h-40v40h40zm40 40h40v-40h-40zm-80 80h40v-40h-40zm80 0h40v-40h-40zm120-280h-40v40h40zm0 80h-40v40h40zm173 273h-40c0-40.253906-32.746094-73-73-73s-73 32.746094-73 73h-40c0-42.085938 23.128906-78.867188 57.34375-98.3125-11.40625-13.023438-18.34375-30.054688-18.34375-48.6875 0-40.804688 33.195312-74 74-74s74 33.195312 74 74c0 18.632812-6.9375 35.664062-18.34375 48.6875 34.214844 19.445312 57.34375 56.226562 57.34375 98.3125zm-113-113c18.746094 0 34-15.253906 34-34s-15.253906-34-34-34-34 15.253906-34 34 15.253906 34 34 34zm-300-280h40v-79h200v79h40v133.757812c6.496094-1.152343 13.179688-1.757812 20-1.757812s13.503906.605469 20 1.757812v-173.757812h-40v-79h-280v79h-40v433h187c0-13.835938 1.859375-27.242188 5.316406-40h-152.316406zm0 0"/></svg>