<svg id="Layer_1" enable-background="new 0 0 512 512" height="512" viewBox="0 0 512 512" width="512" xmlns="http://www.w3.org/2000/svg"><g><path d="m239.433 49.7c-4.142 0-7.5 3.357-7.5 7.5v8.283c0 4.143 3.358 7.5 7.5 7.5s7.5-3.357 7.5-7.5v-8.283c0-4.142-3.358-7.5-7.5-7.5z"/><path d="m272.566 49.7c-4.143 0-7.5 3.357-7.5 7.5v8.283c0 4.143 3.357 7.5 7.5 7.5s7.5-3.357 7.5-7.5v-8.283c0-4.142-3.357-7.5-7.5-7.5z"/><path d="m511.114 377.765c-2.909-17.503-12.501-32.346-25.915-42.141 5.387-6.96 8.807-15.255 9.868-24.04 5.115-2.535 8.649-7.797 8.649-13.883v-59.4c0-21.78-17.72-39.5-39.5-39.5h-1.291c-7.106-21.757-18.908-39.782-35.157-53.621-24.756-21.083-54.131-27.134-71.924-28.77-7.14-10.268-19.017-17.008-32.444-17.008h-10.2v-18.135h9.066c13.271 0 24.066-10.796 24.066-24.066s-10.796-24.066-24.066-24.066h-9.587c-3.053-18.764-19.366-33.135-38.979-33.135h-35.4c-19.613 0-35.926 14.371-38.98 33.134h-9.587c-13.271 0-24.067 10.796-24.067 24.066s10.796 24.066 24.067 24.066h9.066v18.134h-10.2c-13.42 0-25.292 6.733-32.433 16.993-17.776 1.613-47.257 7.636-72.093 28.785-16.249 13.839-28.051 31.864-35.157 53.621h-1.134c-21.78 0-39.5 17.72-39.5 39.5v59.4c0 6.086 3.534 11.348 8.649 13.883 1.062 8.786 4.48 17.08 9.867 24.04-13.413 9.795-23.005 24.637-25.914 42.141-.753 4.531.526 9.15 3.51 12.67 3.016 3.558 7.419 5.599 12.08 5.599h16.726c7.316 0 13.681-4.865 15.477-11.83 1.977-7.666 8.887-13.02 16.804-13.02s14.827 5.354 16.804 13.02c1.796 6.965 8.161 11.83 15.477 11.83h16.727c4.661 0 9.064-2.041 12.08-5.599 2.984-3.521 4.263-8.139 3.51-12.67-2.511-15.111-10.346-28.955-22.06-38.984-1.266-1.084-2.577-2.104-3.914-3.083 5.421-6.975 8.861-15.297 9.927-24.115 5.115-2.535 8.649-7.797 8.649-13.883v-59.4c0-15.989-9.555-29.78-23.25-35.988 7.028-13.837 17.675-24.091 31.763-30.515 5.535-2.524 11.537-4.447 17.904-5.773v24.278c0 12.958 10.542 23.5 23.5 23.5h10.78l5.786 34.715c-13.008.304-23.499 10.972-23.499 24.052v15.401c0 11.533 4.867 22.352 13.237 29.986-6.879 10.07-12.646 21.086-17.215 32.865-7.492 4.083-12.588 12.031-12.588 21.148v10.269c-9.608 3.16-16.567 12.211-16.567 22.863v58.767h-9.066c-13.271 0-24.067 10.797-24.067 24.067v8.283c0 8.703 7.081 15.783 15.783 15.783h91.118c13.271 0 24.067-10.796 24.067-24.066v-66.267c0-18.182-12.005-33.613-28.505-38.784 4.409-17.281 11.306-30.122 17.442-38.912 4.338 1.542 8.919 2.362 13.595 2.362h46.203c4.676 0 9.257-.82 13.595-2.362 6.136 8.791 13.034 21.632 17.442 38.912-16.5 5.171-28.505 20.602-28.505 38.784v66.267c0 13.271 10.796 24.066 24.066 24.066h91.116c8.703 0 15.783-7.08 15.783-15.783v-8.283c0-13.271-10.796-24.067-24.066-24.067h-9.066v-58.766c0-10.652-6.958-19.704-16.566-22.863v-10.269c0-9.117-5.096-17.066-12.589-21.149-4.568-11.778-10.335-22.794-17.214-32.864 8.369-7.635 13.236-18.453 13.236-29.986v-15.401c0-13.08-10.49-23.748-23.498-24.052l5.786-34.715h10.78c12.958 0 23.5-10.542 23.5-23.5v-24.243c6.31 1.326 12.259 3.237 17.748 5.74 14.107 6.432 24.764 16.705 31.792 30.572-13.628 6.236-23.124 19.991-23.124 35.931v59.4c0 6.085 3.534 11.348 8.649 13.883 1.062 8.786 4.481 17.081 9.868 24.041-13.414 9.795-23.005 24.637-25.914 42.141-.753 4.531.526 9.148 3.51 12.669 3.016 3.559 7.419 5.6 12.08 5.6h16.727c7.316 0 13.681-4.865 15.477-11.83 1.977-7.666 8.887-13.02 16.804-13.02s14.827 5.354 16.804 13.02c1.797 6.965 8.161 11.83 15.478 11.83h16.727c4.661 0 9.064-2.041 12.08-5.6 2.98-3.522 4.259-8.139 3.506-12.67zm-106.297-79.565c-.275 0-.5-.225-.5-.5v-34.2h84.4v34.2c0 .275-.225.5-.5.5zm-73.484-241c0 4.999-4.067 9.066-9.066 9.066h-9.067v-18.132h9.066c5 0 9.067 4.067 9.067 9.066zm-141.599 9.067c-5 0-9.067-4.067-9.067-9.066s4.067-9.066 9.067-9.066h9.066v18.133h-9.066zm24.066-26.767c0-13.51 10.991-24.5 24.5-24.5h35.4c13.51 0 24.5 10.99 24.5 24.5v59.9h-84.4zm-25.2 74.9h134.8c11.308 0 20.845 7.701 23.656 18.133h-37.925c-4.215 0-8.178 1.641-11.161 4.623l-11.714 11.714c-.148.148-.344.229-.554.229h-59.404c-.21 0-.406-.081-.554-.229l-11.715-11.716c-2.981-2.98-6.944-4.622-11.159-4.622h-37.925c2.81-10.43 12.348-18.132 23.655-18.132zm-80.917 183.3c0 .275-.224.5-.5.5h-83.4c-.276 0-.5-.225-.5-.5v-34.2h84.4zm7.601 82.524c.012.075.045.274-.156.513-.115.136-.318.297-.636.297h-16.727c-.443 0-.871-.259-.953-.576-3.686-14.292-16.569-24.273-31.329-24.273s-27.643 9.981-31.329 24.273c-.082.317-.509.576-.953.576h-16.725c-.318 0-.522-.161-.637-.297-.202-.238-.168-.438-.156-.513 4.062-24.438 25.006-42.174 49.801-42.174s45.738 17.736 49.8 42.174zm-49.8-57.174c-8.988 0-17.584 1.8-25.424 5.082-3.772-4.274-6.399-9.406-7.651-14.932h66.148c-1.257 5.548-3.9 10.698-7.696 14.983-7.977-3.36-16.602-5.133-25.377-5.133zm42.199-84.75v10.2h-84.4v-10.2c0-13.51 10.991-24.5 24.5-24.5h35.4c13.51 0 24.5 10.99 24.5 24.5zm17.289-80.152c-18.424 8.401-32.016 22.083-40.509 40.684-.426-.014-.851-.033-1.28-.033h-18.375c6.338-17.009 16.054-31.181 28.992-42.201 18.462-15.722 40.082-21.925 55.866-24.318-.365 2.154-.566 4.363-.566 6.62v11.849c-8.593 1.54-16.69 4.008-24.128 7.399zm68.839 201.464c-3.269-5.441-8.626-9.487-14.956-11.027 3.498-7.75 7.606-15.068 12.256-21.909l15.001 10.001c-4.112 6.066-8.46 13.685-12.301 22.935zm-29.711 12.355c0-4.999 4.067-9.066 9.066-9.066 5 0 9.067 4.067 9.067 9.066v9.066h-18.133zm-49.7 124.25v-8.283c0-5 4.067-9.067 9.067-9.067h16.566c11.526 0 21.297 7.647 24.512 18.134h-49.362c-.431-.001-.783-.353-.783-.784zm100.967-74.55v66.267c0 4.999-4.067 9.066-9.067 9.066h-26.327c-3.073-16.404-16.035-29.367-32.439-32.44v-59.46c0-4.999 4.067-9.066 9.067-9.066h33.133c14.134-.001 25.633 11.498 25.633 25.633zm105.522-94.991c4.65 6.841 8.758 14.158 12.256 21.909-6.329 1.54-11.687 5.586-14.956 11.027-3.841-9.25-8.189-16.869-12.302-22.935zm8.878 54.357v-9.066c0-4.999 4.067-9.066 9.066-9.066 5 0 9.067 4.067 9.067 9.066v9.066zm67.833 106.901v8.283c0 .432-.352.783-.783.783h-49.362c3.215-10.487 12.986-18.134 24.512-18.134h16.566c4.999 0 9.067 4.068 9.067 9.068zm-33.133-23.374c-16.404 3.073-29.367 16.036-32.44 32.44h-26.327c-4.999 0-9.066-4.067-9.066-9.066v-66.267c0-14.135 11.499-25.634 25.633-25.634h33.134c4.999 0 9.066 4.067 9.066 9.066zm-33.134-191.994v15.401c0 8.59-4.267 16.563-11.414 21.328l-26.6 17.732c-4.223 2.816-9.14 4.305-14.218 4.305h-46.203c-5.078 0-9.995-1.488-14.219-4.305l-26.598-17.732c-7.148-4.766-11.415-12.738-11.415-21.328v-15.401c0-4.999 4.067-9.066 9.067-9.066h18.994l6.863 27.453c.835 3.339 3.835 5.681 7.276 5.681h66.267c3.441 0 6.441-2.342 7.276-5.681l6.863-27.453h18.993c5.001 0 9.068 4.067 9.068 9.066zm-107.144-9.066h63.622l-4.533 18.134h-54.556zm83.441-15h-103.26l-5.783-34.7h114.826zm31.771-49.7h-166.801c-4.687 0-8.5-3.814-8.5-8.5v-42.767h38.769c.206 0 .408.084.554.229l11.714 11.716c2.981 2.98 6.944 4.622 11.161 4.622h59.404c4.216 0 8.18-1.642 11.161-4.623l11.712-11.713c.147-.146.35-.23.556-.23h38.77v42.766c0 4.686-3.814 8.5-8.5 8.5zm47.47-40.652c-7.392-3.37-15.436-5.83-23.971-7.372v-11.876c0-2.248-.199-4.449-.561-6.595 15.77 2.41 37.304 8.623 55.704 24.293 12.939 11.02 22.655 25.192 28.993 42.201h-18.22c-.481 0-.957.019-1.434.036-8.492-18.602-22.085-32.285-40.511-40.687zm41.946 55.652h35.4c13.51 0 24.5 10.99 24.5 24.5v10.2h-84.4v-10.2c0-13.51 10.99-24.5 24.5-24.5zm-15.375 99.4h66.149c-1.252 5.526-3.879 10.657-7.652 14.931-7.839-3.282-16.435-5.082-25.423-5.082s-17.584 1.8-25.423 5.082c-3.772-4.274-6.399-9.405-7.651-14.931zm82.719 67.536c-.115.135-.318.297-.637.297h-16.727c-.443 0-.87-.259-.952-.576-3.688-14.292-16.57-24.273-31.329-24.273s-27.642 9.981-31.329 24.273c-.082.317-.509.576-.952.576h-16.727c-.318 0-.521-.162-.637-.297-.202-.238-.169-.438-.156-.513 4.062-24.438 25.006-42.174 49.801-42.174s45.739 17.736 49.801 42.174c.013.076.046.275-.156.513z"/></g></svg>